<svg width="280" height="280" viewBox="0 0 280 280" fill="none" xmlns="http://www.w3.org/2000/svg">
<g clip-path="url(#clip0)">
<g filter="url(#filter0_d)">
<path d="M54.1615 10.0891L31.8896 97.11L75.213 115.378L97.4849 28.3568L54.1615 10.0891Z" fill="#4F46E5"/>
<path d="M229.766 84.1343L217.064 133.762L260.388 152.03L273.089 102.402L229.766 84.1343Z" fill="#4F46E5"/>
<path d="M207.036 172.944L198.302 207.07C196.56 213.877 192.871 219.12 187.237 222.798C181.705 226.075 175.535 226.843 168.728 225.1C161.921 223.358 156.776 220.121 153.294 215.39C150.314 210.361 149.593 204.843 151.13 198.837L176.079 101.358L132.755 83.0906L106.082 187.308C104.545 193.314 100.861 197.704 95.0315 200.479C89.7045 202.955 83.8375 203.374 77.4307 201.734C71.0239 200.094 66.1818 196.508 62.9044 190.976C59.7295 185.044 59.0132 178.674 60.7554 171.867L65.1849 154.56L21.8615 136.292L15.7074 160.337C10.5832 180.359 12.495 197.061 21.4428 210.444C30.3906 223.827 44.8752 233.081 64.8965 238.205C85.3183 243.432 102.318 242.023 115.897 233.978C123.941 247.557 138.175 256.96 158.596 262.186C179.419 267.515 197.471 266.163 212.754 258.128C228.437 250.195 238.841 236.218 243.965 216.197L250.359 191.212L207.036 172.944Z" fill="#4F46E5"/>
</g>
</g>
<defs>
<filter id="filter0_d" x="9.90851" y="9.08911" width="266.181" height="261.285" filterUnits="userSpaceOnUse" color-interpolation-filters="sRGB">
<feFlood flood-opacity="0" result="BackgroundImageFix"/>
<feColorMatrix in="SourceAlpha" type="matrix" values="0 0 0 0 0 0 0 0 0 0 0 0 0 0 0 0 0 0 127 0"/>
<feOffset dy="2"/>
<feGaussianBlur stdDeviation="1.5"/>
<feColorMatrix type="matrix" values="0 0 0 0 0 0 0 0 0 0 0 0 0 0 0 0 0 0 0.25 0"/>
<feBlend mode="normal" in2="BackgroundImageFix" result="effect1_dropShadow"/>
<feBlend mode="normal" in="SourceGraphic" in2="effect1_dropShadow" result="shape"/>
</filter>
<clipPath id="clip0">
<rect width="512" height="512" fill="white" transform="translate(-104 -160)"/>
</clipPath>
</defs>
</svg>
