<svg width="280" height="280" viewBox="0 0 280 280" fill="none" xmlns="http://www.w3.org/2000/svg">
<g clip-path="url(#clip0)">
<rect width="512" height="512" transform="translate(-104 -160)" fill="white"/>
<path d="M176.163 45.2346C178.423 37.4491 180.143 28.8409 181.325 19.41C187.709 20.3741 194.487 21.8967 201.658 23.9776C205.141 24.9883 206.436 27.0303 205.544 30.1035L171.387 147.808C168.415 158.052 162.818 165.091 154.597 168.925C146.581 172.818 137.246 173.219 126.592 170.128C116.143 167.095 108.955 162.011 105.029 154.874C97.8917 158.8 89.0987 159.247 78.6498 156.215C68.4057 153.242 61.0859 148.23 56.6902 141.179C52.2944 134.128 51.583 125.481 54.5557 115.237L82.6483 18.4303C83.8969 14.1278 83.9692 10.8168 82.8653 8.49724C81.9662 6.23712 79.3654 4.48279 75.0629 3.23423C76.3444 -1.94725 78.9379 -5.52625 82.8435 -7.50275C87.0135 -9.62468 91.9668 -9.85326 97.7034 -8.18852C103.44 -6.52377 107.062 -3.69562 108.569 0.295931C110.282 4.34694 110.038 10.1627 107.838 17.7433L77.6048 121.925C76.5941 125.408 76.8588 128.706 78.3991 131.819C79.9987 134.726 82.4376 136.656 85.7157 137.607C88.9938 138.558 92.0273 138.439 94.8161 137.249C97.8692 135.914 99.8417 133.71 100.733 130.636L129.45 31.6788C131.71 23.8933 133.43 15.2851 134.612 5.85419C140.996 6.81832 147.774 8.34085 154.945 10.4218C158.428 11.4325 159.723 13.4745 158.831 16.5477L123.783 137.325C122.891 140.398 123.172 143.257 124.626 145.9C126.345 148.398 128.946 150.152 132.429 151.163C135.912 152.174 139.107 151.879 142.015 150.279C144.982 148.475 146.971 145.831 147.981 142.348L176.163 45.2346Z" fill="white"/>
<path d="M246.879 17.2678C250.774 2.05158 253.574 -14.7246 255.28 -33.0608C267.703 -31.588 280.922 -29.0581 294.937 -25.4711C301.744 -23.7289 304.379 -19.8546 302.842 -13.8482L243.965 216.197C238.841 236.218 228.437 250.195 212.754 258.128C197.471 266.163 179.418 267.515 158.596 262.186C138.175 256.96 123.941 247.557 115.897 233.978C102.318 242.023 85.3182 243.432 64.8965 238.205C44.8751 233.081 30.3906 223.827 21.4428 210.444C12.495 197.061 10.5832 180.359 15.7074 160.337L64.131 -28.8642C66.2832 -37.2732 66.2188 -43.6895 63.9377 -48.1132C62.0571 -52.4345 56.9123 -55.6712 48.5033 -57.8233C50.665 -67.9365 55.4664 -75.0274 62.9076 -79.0961C70.8517 -83.4628 80.4297 -84.2113 91.6416 -81.3418C102.854 -78.4722 110.042 -73.2191 113.208 -65.5825C116.773 -57.8434 116.66 -46.5659 112.868 -31.7502L60.7554 171.867C59.0132 178.674 59.7295 185.044 62.9044 190.976C66.1818 196.508 71.0239 200.094 77.4307 201.734C83.8375 203.374 89.7044 202.955 95.0315 200.479C100.861 197.704 104.545 193.314 106.082 187.308L155.582 -6.09855C159.476 -21.3148 162.277 -38.0909 163.983 -56.4271C176.406 -54.9543 189.625 -52.4244 203.64 -48.8375C210.447 -47.0953 213.082 -43.2209 211.545 -37.2145L151.13 198.837C149.593 204.843 150.314 210.361 153.294 215.39C156.776 220.121 161.921 223.358 168.728 225.1C175.535 226.843 181.705 226.075 187.237 222.798C192.871 219.12 196.56 213.877 198.302 207.07L246.879 17.2678Z" fill="#4F46E5"/>
<rect x="-10.8365" y="88" width="115.946" height="36.4537" transform="rotate(22.8632 -10.8365 88)" fill="white"/>
<rect x="197.163" y="144" width="115.946" height="36.4537" transform="rotate(22.8632 197.163 144)" fill="white"/>
<rect x="40.4235" y="-198" width="417.957" height="186.403" transform="rotate(22.8632 40.4235 -198)" fill="white"/>
</g>
<defs>
<clipPath id="clip0">
<rect width="512" height="512" fill="white" transform="translate(-104 -160)"/>
</clipPath>
</defs>
</svg>
