<svg width="262" height="256" viewBox="0 0 262 256" fill="none" xmlns="http://www.w3.org/2000/svg">
<path fill-rule="evenodd" clip-rule="evenodd" d="M42.1614 0.089122L19.8896 87.11L63.213 105.378L85.4848 18.3568L42.1614 0.089122ZM217.766 74.1343L205.064 123.762L248.388 142.03L261.089 92.402L217.766 74.1343ZM195.036 162.944L186.302 197.07C184.56 203.877 180.871 209.12 175.237 212.798C169.705 216.075 163.535 216.843 156.728 215.1C149.921 213.358 144.776 210.121 141.294 205.39C138.314 200.361 137.593 194.843 139.13 188.837L164.079 91.3584L120.755 73.0906L94.0823 177.308C92.545 183.314 88.8614 187.704 83.0314 190.479C77.7044 192.955 71.8375 193.374 65.4306 191.734C59.0238 190.094 54.1817 186.508 50.9043 180.976C47.7295 175.044 47.0131 168.674 48.7553 161.867L53.1848 144.56L9.86142 126.292L3.70735 150.337C-1.41685 170.359 0.494952 187.061 9.44274 200.444C18.3905 213.827 32.8751 223.081 52.8964 228.205C73.3182 233.432 90.3184 232.023 103.897 223.978C111.941 237.557 126.175 246.96 146.596 252.186C167.418 257.515 185.471 256.163 200.754 248.128C216.437 240.195 226.841 226.218 231.965 206.197L238.359 181.212L195.036 162.944Z" fill="#4F46E5"/>
</svg>
