<svg width="500" height="500" version="1.1" viewBox="0 0 132.292 132.292" xmlns="http://www.w3.org/2000/svg" xmlns:xlink="http://www.w3.org/1999/xlink">
<defs>
<linearGradient id="a" x1="55.9557" x2="106.227" y1="189.366" y2="-29.5667" gradientUnits="userSpaceOnUse">
<stop stop-color="#ffba26" offset="0"/>
<stop stop-color="#ffe155" offset="1"/>
</linearGradient>
<filter id="b" color-interpolation-filters="sRGB">
<feFlood flood-color="rgb(173,79,0)" flood-opacity=".294118" result="flood"/>
<feComposite in="flood" in2="SourceGraphic" operator="in" result="composite1"/>
<feGaussianBlur in="composite1" result="blur" stdDeviation="0.8"/>
<feOffset dx="-1" dy="3.60396" result="offset"/>
<feComposite in="SourceGraphic" in2="offset" result="composite2"/>
</filter>
</defs>
<rect width="132.292" height="132.292" rx="0" ry="0" fill="url(#a)" stop-color="#000000" stroke-width=".264583" style="paint-order:markers fill stroke"/>
<g transform="translate(357.806,-162.68)" filter="url(#b)">
<g transform="matrix(1.03829,0,0,1.03829,-397.009,13.0358)" stroke-width=".963127">
<path transform="matrix(.264583 0 0 .264583 -357.806 159.297)" d="m1870.02 204.768-34.4512 84.8965c-6.2488 15.3989-23.6774 22.7659-39.0762 16.5176l-154.832-62.832c-5.2591-2.1343-9.5793-5.57338-12.7422-9.78906l-11.2754 27.7891c-6.2486 15.3989-7.6022 32.8027 23.5821 52.7363 5.4249 3.46766 12.2261 7.12535 19.9453 10.8457l23.3886-4.20117 2.4024 15.5625c10.8925 4.44795 22.4385 8.80669 33.8613 12.8613l23.7891-5.17774 4.4433 14.6719c13.6306 4.33139 26.018 7.89242 35.4571 10.1855 31.5651 7.66837 46.2502-8.60649 59.4531-33.8711l2.0644-28.5781 10.3555-0.17774 0.1192 0.18945c11.9021-33.1634 22.2767-79.2782 21.7988-85.1797-0.5786-7.14785-4.6449-11.5997-8.2832-16.4492z"/>
<path d="m81.6196 192.779-0.95451 35.6707 45.1311 15.1014 10.1544-23.3464 1.47535-6.0317c-3.30647-4.7238-5.53583-7.5608-6.33863-8.6l-1.76887-8.6082-3.92073 0.5601-1.51098-2.1424z"/>
<path d="m74.151 176.245s-10.093 2.3638-12.8349 11.6063c-0.89887 3.0301-0.32237 6.4842 1.16711 12.18-0.48141 0-0.95018 0.071-1.40095 0.2168-6.17714 2.0007-8.25733 14.8054-5.50119 21.1932 2.75611 6.3878 18.5699 7.7834 18.5699 7.7834l0.37309-2.1852h5.08889s-3.2769-19.2526 0.95601-35.5014z"/>
<path d="m71.2431 177.857s5.8384-8.7505 17.8738-12.93c12.0355-4.1795 48.2963-9.0252 52.6708-2.2818 4.37449 6.7434-5.134 19.0148-5.134 19.0148s3.1348 0.5365 3.61277 3.9931c0.47803 3.4565-5.89452 15.4019-24.7191 16.1625-26.4875 0.4033-37.459-6.8453-37.459-6.8453z"/>
<path d="m77.5805 180.474c-1.4402-6.8811-14.859-18.9282-20.8035-9.4416-5.9445 9.4867 16.8028 12.4821 16.8028 12.4821z"/>
<path d="m134.637 214.95c-4.25244-6.0753-6.75526-9.0696-6.68285-9.0696l-6.85646-9.7205-42.2669-2.6037-0.9547 35.6708 45.131 15.1016 10.816-22.4489z" fill="#f7cda6"/>
<path d="m76.043 181.772s-9.0038 4.3151-9.90381 15.5326c-0.90003 11.2175 19.3197 40.599 21.7004 37.3026l8.12972-1.8074s-8.79161-19.265-9.02716-37.1383z" fill="#f99c7d"/>
<path d="m134.417 214.601c-0.97223 8.7954-5.16972 14.3656-8.45846 20.8445-1.53427 3.7809-5.81343 5.5895-9.5943 4.0553-13.06-4.3334-26.5101-7.3463-37.5902-15.8046-1.29127-0.524-2.77743-0.9905-3.55401-2.0255l-2.76858 6.8228c-1.53418 3.7809-1.42802 7.44042 6.22861 12.3346 0.883631 0.56482 3.82455 2.01603 3.82455 2.01603l5.52289 0.80113 2.06408 2.52533 8.33498 3.34092 5.56396-0.26236 2.51453 2.94426s5.43735 1.61034 7.35617 2.07649c8.71259 2.11659 11.75-2.5748 15.3579-10.1029 0.50543-1.05459 1.20731-4.13543 1.20731-4.13543l1.09029-1.26642s1.19139-3.352 2.62025-8.87142c1.42269-5.49555 2.38635-10.3611 2.31406-11.2539-0.1421-1.755-1.14075-2.8482-2.03407-4.0388z" fill="#841212"/>
<path d="m74.4916 178.628s5.32974-7.9881 16.3166-11.8035c10.9868-3.8154 44.0885-8.2388 48.0819-2.083 3.99336 6.1559-4.68669 17.3581-4.68669 17.3581s2.8617 0.4899 3.29803 3.6452c0.43635 3.1554-5.38105 14.0601-22.5655 14.7544-24.1798 0.3682-34.1955-6.2489-34.1955-6.2489z" fill="#841212"/>
<path d="m75.4699 179.454c-1.10466-5.2778-11.3969-14.5179-15.9563-7.2417-4.55943 7.2762 12.8877 9.5738 12.8877 9.5738z" fill="#841212"/>
<path d="m75.2244 179.086s-9.0729 2.1248-11.5376 10.4329c-2.46462 8.3081 9.32829 35.2264 9.32829 35.2264h7.1189s-2.94574-17.3063 0.85918-31.9124z" fill="#841212"/>
<path d="m126.53 197.742 1.85291 8.771-7.00799-8.0346z" fill="#841212"/>
<path d="m77.8019 211.612s-8.5625-11.1267-14.1152-9.3282c-5.55259 1.7984-7.63254 11.6871-5.15506 17.4291s16.6926 6.9962 16.6926 6.9962z" fill="#f7cda6"/>
<path d="m76.354 214.546s-9.07992-10.1747-13.8038-8.6447-6.02085 9.234-3.91316 14.119c2.10773 4.885 14.8154 6.3772 14.8154 6.3772s3.65746-4.9535 2.90152-11.8515z" fill="#f99c7d"/>
<path d="m73.9612 216.458s-4.05907-5.2746-6.69133-4.4221c-2.63227 0.8526-3.61823 5.5403-2.44378 8.2623 1.17446 2.7221 7.91324 3.3166 7.91324 3.3166z" fill="#ff6464"/>
<path d="m117.324 223.027c6.45986 0 11.6604 5.2005 11.6604 11.6603v0.9819c0 5.3344-5.27272 11.6435-11.6604 11.6603-6.45977 0.017-11.6603-5.2005-11.6603-11.6603v-0.9819c0-6.4598 5.20055-11.6603 11.6603-11.6603z" fill="#841212"/>
<path d="m118.642 226.832c4.14348 0 7.47914 1.9856 7.47914 6.129v0.6298c-0.54457 2.1322-14.2996 2.7651-14.9582 1.3501v-0.6298c0-4.1434 3.33566-7.4791 7.47903-7.4791z" fill="#f7cda6"/>
<path d="m74.9864 207.8c3.82702 12.1898-1.7009 18.8043-1.7009 18.8043l5.05542 0.3308 0.18902-16.631z" fill="#841212"/>
<path d="m134.515 181.616c-2.07706 2.9259-7.239 5.4659-7.239 5.4659s4.60208-0.3366 9.62308-4.3823z"/>
<path d="m82.5749 243 5.3788-9.6218 2.13815 13.0294-1.87079-3.29037z" fill="#5c0d0d"/>
<path d="m98.3691 249.538 4.44571-8.5999 3.68782 11.2092-2.51246-2.89735z" fill="#5c0d0d"/>
<path d="m131.658 239.347-1.85062-7.5605-0.84948 13.099 1.39497-4.91232z" fill="#5c0d0d"/>
<path transform="matrix(.264583 0 0 .264583 -357.806 159.297)" d="m1849.75 300.338-8.2128 0.17773-2.1426 24.4629 6.1621-12.0391 0.4726-6.55468 2.9063-0.0508 2.0644-4.0332z"/>
<path d="m88.7067 167.796c-25.9169 15.8343-5.71641 30.4895 15.308 32.317 13.0402 1.7008 22.962-1.9844 22.962-1.9844s9.69354-5.5674 7.18156-8.788c-2.51198-3.2205-24.7676 3.9621-24.7676 3.9621s34.6795-20.6029 29.6813-28.436c-4.99819-7.8331-43.6836-0.078-50.3653 2.9293z" fill="#b83030"/>
<path d="m75.0051 177.954s-8.12096-10.7034-11.1503-7.4178c-3.02938 3.2857 8.31545 10.5361 8.31545 10.5361 2.97948 0.1662 3.22586-1.2872 2.83485-3.1183z" fill="#b83030"/>
<ellipse transform="matrix(.292635 .956224 -.951715 .306982 0 0)" cx="222.291" cy="-26.6737" rx="2.82381" ry="7.41464" fill="#592525"/>
<ellipse transform="matrix(-.523128 .852254 .844291 .535885 0 0)" cx="107.58" cy="210.866" rx="1.68138" ry="4.41491" fill="#592525"/>
<path transform="matrix(.264583 0 0 .264583 -357.806 159.297)" d="m1689.94 312.014-26.0118 4.67188 11.5899 5.66797 9.039-1.62305 1.0098 6.53906 7.2774 3.55859z"/>
<path transform="matrix(.264583 0 0 .264583 -357.806 159.297)" d="m1749.79 335.494-26.25 5.71484 11.3925 4.87305 9.6778-2.10547 2.1738 7.17578 8.8984 3.80664z"/>
<ellipse transform="matrix(.130219 .991485 .912511 .409052 0 0)" cx="186.188" cy="82.0456" rx="5.0975" ry="2.5456"/>
<ellipse transform="matrix(.130219 .991485 .912511 .409052 0 0)" cx="172.253" cy="109.37" rx="5.0975" ry="2.5456"/>
<path d="m115.964 229.998c0.11446 1.3775 1.56959 3.3426 3.25009 3.0499 1.6805-0.2929 2.94997-2.7329 2.83551-4.1105-4.57528 0.7974-2.83416 0.494-6.0856 1.0606z"/>
<path d="m115.931 229.787c0.11446 1.3775 1.56959 2.2568 3.25009 1.9639 1.68047-0.2928 2.95-1.6468 2.83551-3.0245-4.57528 0.7974-2.83416 0.4939-6.0856 1.0606z" fill="#f7cda6"/>
</g>
</g>
</svg>
